<svg width="1000" height="1000" viewBox="0 0 1000 1000" fill="none" xmlns="http://www.w3.org/2000/svg">
<path d="M500 1000C776.142 1000 1000 776.142 1000 500C1000 223.858 776.142 0 500 0C223.858 0 0 223.858 0 500C0 776.142 223.858 1000 500 1000Z" fill="white"/>
<path d="M347.994 752.548C347.994 752.548 310.76 725.657 347.994 697.151C347.994 697.151 336.061 665.419 394.379 655.738C452.716 646.057 525.814 569.683 532.836 522.353C539.857 475.023 539.16 463.729 607.325 441.677C675.51 419.624 775.995 312.595 766.17 203.414C766.17 203.414 813.25 272.796 794.275 345.404C775.3 418.011 714.157 433.61 714.157 433.61C714.157 433.61 771.082 427.155 794.275 392.196C794.275 392.196 840.659 445.979 707.134 466.417C707.134 466.417 754.216 476.1 789.362 455.123C789.362 455.123 811.837 507.294 705.027 497.613C705.027 497.613 742.261 514.824 780.211 506.217C780.211 506.217 779.516 556.237 702.202 519.665C702.202 519.665 721.177 547.094 742.977 551.396C742.977 551.396 716.264 599.264 682.531 542.253C682.531 542.253 684.64 568.069 705.722 585.28C705.722 585.28 674.098 636.376 662.143 573.986C662.143 573.986 656.533 610.021 658.642 619.164C660.751 628.308 518.078 683.705 437.263 707.37C356.427 731.035 364.165 720.278 356.427 731.035C348.71 741.793 347.994 740.716 347.994 752.548Z" fill="#6777EF"/>
<path d="M514.67 692.352C514.67 692.352 583.529 672.45 609.547 656.853C609.547 656.853 728.312 698.268 666.474 802.07L646.085 781.095C646.085 781.095 663.649 760.12 658.039 740.22C658.039 740.22 655.932 766.573 631.326 775.717L608.135 768.725C608.135 768.725 627.11 754.202 616.568 729.462C616.568 729.462 614.46 762.808 591.267 770.876L559.641 770.337C559.641 770.337 570.88 745.598 569.488 729.462C569.488 729.462 556.837 762.27 538.559 773.564L509.04 773.027C509.04 773.027 530.124 745.598 530.821 732.689C530.821 732.689 495.531 755.495 492.706 777.546L463.189 781.365C463.189 781.365 476.003 743.446 518.169 712.789C525.907 704.184 514.67 692.352 514.67 692.352Z" fill="#6777EF"/>
<path d="M489.37 571.336C489.37 571.336 452.81 626.197 391.667 643.946C391.667 643.946 340.37 619.742 336.154 610.06C331.938 600.379 330.852 565.42 330.852 565.42C330.852 565.42 318.427 587.602 315.07 603.069C313.31 611.137 285.552 589.085 290.465 579.943C295.398 570.8 309.441 542.83 309.441 542.83C309.441 542.83 288.336 557.241 271.326 556.681C254.295 556.119 252.35 540.949 252.35 540.949C252.35 540.949 284.468 525.992 291.182 523.468C291.182 523.468 268.849 530.463 253.927 527.235C238.984 524.007 226.516 510.291 226.516 510.291C226.516 510.291 256.281 500.982 291.182 501.955C291.182 501.955 243.385 494.772 228.096 487.3C209.121 478.022 208.944 451.399 208.944 451.399C208.944 451.399 253.231 466.457 283.444 466.996C283.444 466.996 174.508 448.171 201.215 394.925C201.215 394.925 246.906 434.187 279.923 436.34C279.923 436.34 206.836 391.699 201.215 358.352C195.592 325.006 199.107 219.052 225.109 197C225.109 197 232.841 329.309 308.049 384.169C383.234 439.028 459.851 436.877 459.135 488.509C458.439 540.142 489.37 571.336 489.37 571.336Z" fill="#6777EF"/>
<path d="M343.175 445.303C445.236 503.107 431.952 582.606 401.104 640.829C456.535 620.556 489.37 571.336 489.37 571.336C489.37 571.336 458.439 540.142 459.135 488.509C459.851 436.877 383.234 439.028 308.049 384.169C232.841 329.309 225.109 197 225.109 197C225.109 197 162.564 342.999 343.175 445.303Z" fill="#6777EF"/>
<path d="M606.722 441.718C538.558 463.768 539.253 475.064 532.233 522.394C526.747 559.359 480.956 614.04 433.383 640.829C482.041 647.991 568.013 641.725 591.225 523.714C614.418 405.702 815.717 452.362 765.567 203.454C775.391 312.635 674.906 419.666 606.722 441.718Z" fill="#6777EF"/>
<path d="M347.391 697.192C310.157 725.698 347.391 752.591 347.391 752.591C347.391 740.757 348.109 741.833 355.824 731.076C357.995 728.054 358.957 726.73 360.983 725.864C377.769 707.136 347.391 697.192 347.391 697.192Z" fill="#6777EF"/>
</svg>
